# xmcd CD database file
#
# Track frame offsets:
#	150
#	18902
#	36915
#
# Disc length: 740 seconds
#
# Revision: 2
# Processed by: cddbd v1.5PL3 Copyright (c) Steve Scherf et al.
# Submitted via: CDex 1.50
#
DISCID=1a02e203
DTITLE=SAPCE ALL STARS - ゴキゲンDODAI
DYEAR=1998
DGENRE=JPop
TTITLE0=ゴキゲンDODAI
TTITLE1=Just Countdown
TTITLE2=ゴキゲンDODAI（オリジナルカラオケ）
EXTD=YEAR: 1998
EXTT0=
EXTT1=
EXTT2=
PLAYORDER=
